<?xml version="1.0" encoding="utf-8"?>
<!-- Generator: Adobe Illustrator 24.0.3, SVG Export Plug-In . SVG Version: 6.00 Build 0)  -->
<svg version="1.0" id="Layer_1" xmlns="http://www.w3.org/2000/svg" xmlns:xlink="http://www.w3.org/1999/xlink" x="0px" y="0px"
	 viewBox="0 0 854.7 609.8" style="enable-background:new 0 0 854.7 609.8;" xml:space="preserve">
<style type="text/css">
	.st0{fill:#D4D4D4;}
	.st1{fill:#FFFFFF;}
	.st2{fill:#1C54FF;}
	.st3{fill:#F91E77;}
	.st4{fill:#2051FF;}
	.st5{fill:#D6D6D6;}
	.st6{fill:#DDDDDD;}
	.st7{fill:none;stroke:#FFFFFF;stroke-miterlimit:10;}
</style>
<rect x="17" y="517.7" width="804.7" height="7.9"/>
<g>
	<path class="st0" d="M522.7,227.3c0,0-10.8-20.8,2-38.8c12.8-18,30.4-38.2,24-52.1c-6.4-13.9-3.6-29.9,22.4-43.5
		c33-17.3,99.2-16,100.4,34c1.2,50-26,45.2-20.4,54.8c5.6,9.6,26.9,44.8,20.4,65.2S522.7,227.3,522.7,227.3z"/>
	<path d="M652.5,254.7c-16.3,0-39.2-4.1-58.1-8c-36.1-7.4-71.8-17.4-72.1-17.5c-0.5-0.1-1-0.5-1.2-1c-0.5-0.9-11.2-22.1,2.1-40.9
		c1.8-2.5,3.8-5.2,5.6-7.7c11.4-15.5,23.2-31.5,18.2-42.4c-5.7-12.5-6.4-30.6,23.3-46.1c22-11.5,58.7-15.2,82.1-1.4
		c13.5,7.9,20.8,20.8,21.2,37.1c0.8,33.7-11.3,43.5-17.7,48.8c-3.8,3.1-3.9,3.4-2.9,5.1l0.6,1.1c6.5,11.2,26.4,45.1,20,65.7
		C671.8,252.8,663.7,254.7,652.5,254.7z M524.2,225.7c5.7,1.6,38.2,10.5,71,17.2c21,4.3,38,6.9,50.6,7.6c20,1.2,23.4-2.5,23.9-4.2
		c5.9-18.8-13.3-51.7-19.6-62.4l-0.7-1.1c-2.8-4.8,0.6-7.5,3.9-10.2c6.4-5.2,17-13.8,16.3-45.6c-0.4-15.1-6.8-26.5-19.2-33.8
		c-22.2-13.1-57.2-9.5-78.3,1.5c-21.6,11.3-28.8,25-21.5,40.9c6,13-6.5,30-18.6,46.4c-1.9,2.5-3.8,5.2-5.6,7.7
		C515.8,204.6,522.5,221.9,524.2,225.7z"/>
</g>
<g>
	<path class="st1" d="M595.3,108.2c0,0-1.4,46.4,32.6,50.4c0,0,10-6.8,15.6,1.6c5.6,8.4-1.4,23.2-24.1,19.6c0,0-6.7,20.9-5.5,32.2
		c1.2,11.4,16.4,8.8,25.8,13.3s-9.8,48.9-9.8,48.9l-98-45.2l7-15.7l18.4-0.7c0,0,30.6,11.6,27.4-24.4c0,0-30.4,5.4-25.6-51.7
		C559.1,136.5,565.9,111.8,595.3,108.2z"/>
	<path d="M629.9,276.1c-0.3,0-0.6-0.1-0.8-0.2l-98-45.2c-1-0.5-1.4-1.6-1-2.6l7-15.7c0.3-0.7,1-1.2,1.7-1.2l18.4-0.7
		c0.3,0,0.5,0,0.8,0.1c0.1,0,11.8,4.4,19-1.1c4.4-3.4,6.4-9.8,5.9-19.3c-3.2,0.1-9.3-0.7-14.9-5.8c-9.2-8.4-12.8-24.6-10.9-48.2
		c0-0.1,0-0.2,0.1-0.4c0.1-0.3,1.9-6.7,7.5-13.5c5.1-6.3,14.6-14.3,30.4-16.2c0.6-0.1,1.2,0.1,1.6,0.5c0.4,0.4,0.7,1,0.7,1.5
		c0,0.4-0.9,44,30.1,48.3c1.7-1,6.1-3.2,10.7-2.3c2.9,0.6,5.2,2.2,7,4.9c2.9,4.3,2.9,10.1-0.1,14.7c-2,3.2-8.4,10.2-24.3,8.2
		c-1.5,5-5.9,20.8-4.9,29.8c0.6,5.9,5.6,7.1,13.7,8.7c3.7,0.7,7.6,1.5,10.9,3c5.1,2.4,5,11.5-0.3,28.5c-3.6,11.6-8.4,22.8-8.5,23
		c-0.2,0.5-0.6,0.9-1.1,1.1C630.4,276.1,630.2,276.1,629.9,276.1z M534.6,228l94.3,43.5c10.4-24.5,13.6-42.7,10-44.4
		c-2.9-1.4-6.5-2-9.9-2.7c-7.5-1.4-16-3.1-17-12.2c-1.2-11.7,5.3-32.2,5.6-33c0.3-0.9,1.2-1.5,2.2-1.4c14.8,2.3,20.3-3.5,22-6.2
		c2.1-3.3,2.2-7.3,0.1-10.3c-1.2-1.8-2.6-2.8-4.4-3.2c-4-0.8-8.3,2.1-8.4,2.1c-0.4,0.3-0.9,0.4-1.4,0.3c-30.8-3.6-34-40.3-34.3-50.1
		c-24.9,4.1-31.6,24.1-32.2,26.4c-1.8,21.8,1.5,37.3,9.5,44.7c6.4,5.9,13.5,4.7,13.8,4.7c0.6-0.1,1.1,0,1.6,0.4
		c0.4,0.3,0.7,0.8,0.8,1.4c1.1,12-1.4,20.3-7.3,24.8c-8.2,6.2-20.1,2.6-22.4,1.8l-16.7,0.7L534.6,228z"/>
</g>
<g>
	<path d="M575.8,159.3c-0.7,0-1.4-0.4-1.8-1.1c-0.5-1-0.1-2.2,0.8-2.7c0.1,0,8.5-4.6,11.4-13c2.5-7.3-11.1-13.3-11.3-13.4
		c-1-0.4-1.5-1.6-1.1-2.6c0.4-1,1.6-1.5,2.6-1.1c0.7,0.3,17.3,7.4,13.5,18.4c-3.4,9.9-13,15-13.4,15.2
		C576.5,159.2,576.1,159.3,575.8,159.3z"/>
</g>
<g>
	<path d="M580.3,182.1c-1.1,0-2-0.9-2-2s0.9-2,2-2c3.2,0,6.8-2.6,9.6-5.3c-10.1,1.2-17.6-4.4-18-4.7c-0.9-0.7-1-1.9-0.4-2.8
		s1.9-1,2.8-0.4l0,0c0.4,0.3,9.5,7,20.5,2.4c0.8-0.3,1.8-0.1,2.3,0.6c0.6,0.7,0.6,1.7,0.1,2.4C596.9,170.9,588.9,182.1,580.3,182.1z
		"/>
</g>
<g>
	<circle cx="599.7" cy="155.8" r="4.4"/>
</g>
<g>
	<circle cx="576.1" cy="141.5" r="3.9"/>
</g>
<g id="Layer_2">
	<g>
		<path class="st1" d="M474.4,362.4c0,0,3.7,43.6,34.6,50.5s42.3,7.4,42.3,7.4l-29.6-54.9L474.4,362.4z"/>
		<path d="M551.3,422.3C551.3,422.3,551.3,422.3,551.3,422.3c-0.6,0-12-0.6-42.7-7.5c-13.3-3-23.8-13-30.3-29
			c-4.8-11.9-5.8-22.8-5.9-23.2c0-0.6,0.2-1.2,0.6-1.6s1-0.6,1.6-0.6l47.3,3c0.7,0,1.3,0.4,1.6,1l29.6,54.9c0.3,0.6,0.3,1.4-0.1,2
			C552.7,422,552,422.3,551.3,422.3z M476.7,364.5c1.3,8.9,7.7,40.8,32.8,46.4c20.9,4.7,32.9,6.4,38.3,7l-27.3-50.7L476.7,364.5z"/>
	</g>
</g>
<g>
	<path class="st2" d="M713.3,564.9H477.5c-0.2-8.1-0.1-15.9,0.2-23.5c4.5-101.3,54.7-157.2,54.7-157.2L492,288.7
		c4.8-67.4,40.5-76.3,57-76.7c1.4,0,2.7,0,3.8,0c2.8,0.1,4.5,0.5,4.5,0.5c2.6,17.6,9.8,30.1,39.5,34.4c29.6,4.3,42.9-21.6,42.9-21.6
		c70,9.1,65.8,120.9,65.8,120.9c-21.8-8.8-46.6,8.3-46.6,8.3l-5.7-25.9c-4.7,18.1-17.6,24.4-17.6,24.4
		C681.1,363.3,713.3,564.9,713.3,564.9z"/>
	<path d="M713.3,566.9H477.5c-1.1,0-2-0.9-2-1.9c-0.2-7.9-0.1-15.9,0.2-23.7c2.3-52.7,17.2-92.9,29.3-117.4
		c11.3-23,22.1-36.5,25.1-40.1l-39.9-94.3c-0.1-0.3-0.2-0.6-0.2-0.9c2.1-29.8,10.4-51.6,24.7-64.8c11.9-10.9,25.1-13.5,34.2-13.8
		c1.3,0,2.6,0,4,0c2.9,0.1,4.7,0.5,4.8,0.5c0.8,0.2,1.5,0.8,1.6,1.7c2.5,17.1,9.7,28.6,37.8,32.7c27.9,4.1,40.7-20.3,40.8-20.6
		c0.4-0.8,1.2-1.2,2-1.1c29.5,3.9,50.5,26.5,60.8,65.4c7.7,29,6.7,57.3,6.7,57.6c0,0.7-0.4,1.2-0.9,1.6s-1.2,0.4-1.8,0.2
		c-10.6-4.3-22.2-1.9-30,0.8c-8.6,3-14.7,7.2-14.8,7.2c-0.5,0.4-1.2,0.5-1.9,0.2c-0.6-0.2-1.1-0.8-1.2-1.4l-4.2-18.9
		c-3.7,8.6-9.1,13.7-12.7,16.4c18.3,8.4,36.2,45.3,53.3,109.9c13.6,51.2,21.7,101.8,21.8,102.3c0.1,0.6-0.1,1.2-0.5,1.6
		S713.9,566.9,713.3,566.9z M479.5,562.9h231.5c-1.8-10.5-9.5-54.8-21.4-99.6c-22.4-84.5-42-105.6-54.5-108.4
		c-0.8-0.2-1.4-0.9-1.5-1.7c-0.1-0.8,0.4-1.7,1.1-2c0.1-0.1,12.2-6.1,16.5-23.1c0.2-0.9,1-1.5,2-1.5c0.9,0,1.7,0.7,1.9,1.6l5.1,23.1
		c6.6-3.9,25.4-13.5,43.3-7.9c0-7.7-0.5-30.5-6.7-53.8c-9.9-37.1-28.7-58-56.1-62.2c-3,4.8-15,22-37.5,22c-2.2,0-4.4-0.2-6.8-0.5
		c-29.6-4.3-38-17-40.9-34.6c-0.7-0.1-1.7-0.2-2.8-0.2c-1.3-0.1-2.5-0.1-3.7,0c-8.4,0.2-20.7,2.6-31.6,12.7
		c-13.5,12.4-21.3,33.2-23.4,61.7l40.2,95c0.3,0.7,0.2,1.5-0.4,2.1c-0.5,0.6-49.8,56.7-54.2,156
		C479.4,548.5,479.3,555.7,479.5,562.9z"/>
</g>
<g id="Layer_4">
	<g>
		<g>
			<path d="M512.9,296.5C512.9,296.5,512.9,296.5,512.9,296.5c-1.1,0-2-0.9-2-2c0.1-21.9,5.5-37.4,16.1-46.3
				c8.1-6.8,16.1-6.9,16.5-6.9c1.1,0,2,0.9,2,2c0,1.1-0.9,2-2,2c-1.2,0-28.4,0.8-28.5,49.2C514.9,295.6,514,296.5,512.9,296.5z"/>
		</g>
	</g>
</g>
<g id="Layer_3">
	<g>
		<path class="st1" d="M504,292.3c12.8,62.3,41,93,41,93s-51.6,68.5-65.3,157.1c4.5-101.3,54.7-157.2,54.7-157.2L494,289.7
			c4.8-67.4,40.5-76.3,57-76.7c1.4,0,2.7,1.3,3.8,1.3C526.1,216.2,494.6,246.4,504,292.3z"/>
	</g>
</g>
<g>
	<path class="st1" d="M611.6,359c-0.7,0.4-1.6,0.2-2.1-0.5c-2.1-2.9-7.3-11.1-6.9-19.7c0.5-10.8-2.6-20.7-5.8-24.1
		c-3.2-3.4-8.3-9.9-4.3-10.8c3.9-0.9,11.4,2.5,15.6,8.3c2.9,3.9,6.7,7.7,8.9,9.6c0.8,0.7,2.1,0.5,2.6-0.5l6.9-13
		c0.3-0.6,0.2-1.3-0.2-1.8l-6.7-11c-0.5-0.6-2.6-5.3-2.1-5.9l2.9-2.8c0.6-0.8,3.5,1.6,4.2,2.3v0c1.4,1.3,3.6-0.4,2.6-2l-2.6-4.4
		c-0.4-0.6-2.3-5.5-1.8-6.1l2.4-3.5c0.7-0.9,5.5,2.2,6.1,3.1l16.5,26.1c0.1,0.1,0.2,0.2,0.3,0.3c0.7,0.7,3.7,4-0.1,10
		c-4.1,6.3-26.2,38.6-28.7,42.2c-0.1,0.2-0.3,0.4-0.6,0.5L611.6,359z"/>
	<path d="M610.8,361.2c-1.1,0-2.3-0.5-3-1.5c-2.3-3.3-7.7-11.8-7.3-21c0.4-10.1-2.4-19.6-5.2-22.7c-4.8-5.2-6.9-9.1-6.1-11.6
		c0.2-0.7,0.9-2,2.8-2.5c5.1-1.2,13.3,3,17.7,9c2.6,3.6,6.2,7.1,8.2,9l6.6-12.5c0,0,0,0,0,0l-6.7-11l0,0c-0.7-1.1-3.5-6.1-2-8.1
		c0.1-0.1,0.1-0.2,0.2-0.3l2.9-2.7c0.4-0.5,1-0.7,1.6-0.8c1.2-0.1,2.7,0.8,3.9,1.7l-1.5-2.6c0-0.1-3.1-6.1-1.8-8.2l0,0l2.4-3.5
		c0,0,0.1-0.1,0.1-0.1c0.3-0.4,1-1,2.2-0.9c2.2,0.1,6.3,2.9,7.2,4.2l16.5,26.1c0.8,0.7,4.8,5.2,0.1,12.5
		c-4.2,6.5-27.7,40.8-28.7,42.3c-0.3,0.5-0.8,0.9-1.3,1.1l-6.9,3.7C612,361,611.4,361.2,610.8,361.2z M610.7,357.2
		C610.7,357.2,610.7,357.2,610.7,357.2L610.7,357.2L610.7,357.2z M593,305.7c0.2,1.1,1.8,3.8,5.2,7.5c3.4,3.7,6.8,13.9,6.3,25.6
		c-0.3,7.7,4.2,15.2,6.4,18.2l6.5-3.5c1.6-2.3,24.5-35.7,28.6-42.1c2.9-4.6,1.1-6.9,0.4-7.5c-0.2-0.2-0.4-0.4-0.6-0.7l-16.4-26
		c-0.5-0.5-2.3-1.7-3.4-2.2l-1.4,2.1c0.3,1.1,1.3,3.9,1.6,4.5l2.6,4.4c0.9,1.6,0.6,3.6-0.9,4.7c-1.5,1.1-3.5,1-4.8-0.2
		c-0.5-0.5-1.5-1.3-2.1-1.7l-1.6,1.5c0.3,1.2,1.3,3.4,1.6,3.9c0.1,0.1,0.1,0.1,0.1,0.2l6.6,10.9c0.8,1.1,1,2.6,0.3,3.9l-6.9,13.1
		c-0.5,1-1.5,1.7-2.6,1.9c-1.1,0.2-2.2-0.1-3.1-0.9c-2.1-1.9-6.1-5.8-9.1-9.9C602.5,307.9,595.9,305.2,593,305.7z M622,287.9
		C622,287.9,622,287.9,622,287.9C622,287.9,622,287.9,622,287.9z M624.2,277.7C624.2,277.7,624.2,277.7,624.2,277.7
		C624.2,277.7,624.2,277.7,624.2,277.7z M624.2,277.7C624.2,277.7,624.2,277.7,624.2,277.7C624.2,277.7,624.2,277.7,624.2,277.7z"/>
</g>
<g>
	<path class="st1" d="M620.3,308.2c0,0,13.1-2.2,18.7,0c5.6,2.2,7.5,29.3,0,42.5c-7.5,13.2,28.4,39,29.2,41.3s-9.6-29.7-9.3-37.5
		s28.3-11.3,28.3-11.3l18.4-2.1c0,0,12,63.2,9.7,77.8c-2.2,14.6-18,39.3-40,31c-22.1-8.2-65.1-75.6-65.1-75.6s-4.1-16.2,0-22.1
		c4.3-6.1,20-26,22.1-28.8c0,0,5.3-4.9,1.3-7C629.5,314.6,612.9,314,620.3,308.2z"/>
	<path d="M684,453.6c-3.1,0-6.3-0.6-9.4-1.8c-22.4-8.4-64.3-73.6-66.1-76.4c-0.1-0.2-0.2-0.4-0.3-0.6c-0.4-1.7-4.2-17.2,0.3-23.7
		c2.9-4.1,10.8-14.3,16.6-21.7c2.7-3.5,4.9-6.3,5.5-7.2c0.1-0.1,0.2-0.2,0.2-0.3c1.1-1,2.2-2.7,2.1-3.4c0-0.1-0.2-0.2-0.4-0.3
		c-0.9-0.5-3.1-0.9-5.2-1.4c-5.2-1.1-10.2-2.1-10.9-5.4c-0.4-1.7,0.5-3.4,2.6-5c0.3-0.2,0.6-0.3,0.9-0.4c1.4-0.2,13.8-2.3,19.8,0.1
		c1.7,0.7,3.1,2.5,4.1,5.5c3,8.7,3.3,28.5-3.1,39.9c-4.9,8.7,14.3,25.8,23.3,33.7c-3.4-11.3-7.4-25.8-7.2-30.9
		c0.4-8.8,23.1-12.3,30.1-13.2l18.4-2.1c1-0.1,2,0.6,2.2,1.6c0.5,2.6,12,63.7,9.7,78.5c-1.6,10.3-9,24.1-20.1,30.7
		C692.9,452.3,688.5,453.6,684,453.6z M612.1,373.6c3,4.7,43.4,66.8,63.9,74.5c6.6,2.5,13.1,1.9,19.1-1.6
		c9.9-5.8,16.8-18.7,18.2-27.8c2-12.7-7.5-64.8-9.4-75.3l-16.5,1.9c-12.7,1.6-26.4,5.7-26.6,9.4c-0.2,4.1,3.2,17.7,9.1,36.3
		c0,0.1,0.1,0.2,0.1,0.3c0,0,0,0.1,0,0.1c0,0,0-0.1,0-0.1c0.4,1.4-0.1,2.4-1.2,2.7c-0.7,0.2-1.9,0.1-2.5-1.1
		c-0.5-0.6-2.4-2.3-4.3-3.9c-11-9.6-31.4-27.5-24.8-39.2c5.8-10.3,5.5-28.8,2.8-36.6c-0.9-2.7-1.8-3-1.8-3.1c-4-1.6-13.2-0.6-17.1,0
		c-0.3,0.3-0.5,0.5-0.6,0.7c1.1,0.9,5.5,1.9,7.8,2.3c2.6,0.5,4.8,1,6.2,1.7c1.9,0.9,2.4,2.3,2.6,3.3c0.4,3-2.4,5.9-3.2,6.7
		c-0.8,1.1-2.9,3.7-5.5,7.1c-5.4,7-13.6,17.5-16.4,21.5C609.3,357.2,610.6,367.6,612.1,373.6z M666.4,392.9L666.4,392.9L666.4,392.9
		z M666.3,392.6C666.3,392.6,666.3,392.6,666.3,392.6C666.3,392.6,666.3,392.6,666.3,392.6z"/>
</g>
<g>
	<path d="M239.8,233.1c0,0-32.4,13.1-37.7,18.4c-8.4,8.4-13,34.6-17.5,79S167,437.8,171,447.7s14.4,38.2,55.2,14.4
		c0,0-6.3,20.7-12.1,33.7c-5.8,13-15.3,67.8-15.3,71.9H436c0,0-28.7-123.9-40.9-145.5c-12.1-21.6-22-27.8-17.1-53
		c0,0,38.6,68.7,67.8,57.9c29.2-10.8,31.4-39.1,21.6-64.7c-9.9-25.6-53.9-77.7-55.2-83.5s-9.4-60.3-51.2-56.4
		C319.2,226.3,239.8,233.1,239.8,233.1z"/>
</g>
<g>
	<path class="st1" d="M211.9,320.2l-1.6-9.2c0,0,0.7-7.8,8.3-10.5c7.6-2.7,92.1-15.7,92.1-15.7s18.4-3.6,22.9,13
		c4.5,16.6,22.5,142.4,22.5,142.4s5.4,19.3-21.1,20.7C308.5,462.1,211.9,320.2,211.9,320.2z"/>
</g>
<g>
	<path class="st3" d="M215.1,309c0,0-10.8,1.3-10.8,15.7S229,472,229,472s1.3,8.5,12.6,6.7c11.2-1.8,97.4-15.3,97.4-15.3
		s9-1.3,9-18.4s-20.2-140.6-20.2-140.6s-2.2-14.4-13.5-13S215.1,309,215.1,309z"/>
</g>
<g>
	<path d="M188.2,415.6c0,0,39.4-24.4,58.3-28.5s0,0,0,0s-10.2,43.7,15.3,48.1l0,0c0,0-29.3,23.6-35.5,26.9S188.2,415.6,188.2,415.6z
		"/>
	<path d="M225.6,464.3c-2.9,0-8.3-3.8-22.3-23.1c-8.7-12-16.7-24.5-16.8-24.6c-0.3-0.5-0.4-1-0.3-1.5c0.1-0.5,0.4-1,0.9-1.3
		c1.6-1,40-24.6,58.9-28.7l8.4-1.8c1.1-0.2,2.1,0.5,2.4,1.5c0,0.1,0,0.3,0,0.4c0,0.9-0.6,1.8-1.6,2l-7.1,1.5c-1,5.3-4.5,26.1,3,37.4
		c2.6,3.9,6.2,6.2,10.9,7c0.8,0.1,1.4,0.7,1.6,1.5c0.2,0.8-0.1,1.6-0.7,2.1c-1.2,1-29.5,23.8-35.8,27.1
		C226.8,464.1,226.2,464.3,225.6,464.3z M191,416.2c13.7,21.2,30.3,43.4,34.5,44c5.1-2.8,24.4-18.1,31.9-24.2
		c-3.9-1.5-7.1-4-9.6-7.7c-7.7-11.6-5.3-31-4-38.6C227.1,394.7,198.3,411.8,191,416.2z"/>
</g>
<g>
	<path class="st1" d="M246.5,387.1c0,0,28.7-3.6,31.5-11.7s5.5-21.1,12.8-26.9s10.4-28.3,10.4-28.3s9.2,1.3,6.5,18.9
		s-1.8,8.1-1.8,8.1s36-15.7,40.6-8.1s5,32.3-4.1,40.4c-9.1,8.1-35.3,18.4-41.2,20.2S262,435.1,262,435.1S238.3,432.9,246.5,387.1z"
		/>
	<path d="M262,437.2c-0.1,0-0.1,0-0.2,0c-0.3,0-7-0.7-12.4-7.9c-6.7-8.8-8.4-23.2-4.9-42.5c0.2-0.9,0.9-1.5,1.7-1.6
		c11.4-1.4,28.2-5.6,29.8-10.3c0.5-1.4,1-3.1,1.5-4.8c2.4-8,5.5-17.9,11.9-23.1c5.5-4.4,8.8-21,9.7-27c0.1-0.5,0.4-1,0.8-1.3
		c0.4-0.3,1-0.5,1.5-0.4c0.3,0,3.3,0.6,5.8,3.9c2.8,3.8,3.6,9.6,2.4,17.3c-0.2,1.6-0.5,3-0.7,4.3c11.5-4.7,34.7-13.1,39.2-5.6
		c4.8,8,5.7,33.9-4.5,43c-9.7,8.6-37.1,19.1-41.9,20.6c-3.9,1.2-25.6,22.1-38.3,35C263.1,436.9,262.6,437.2,262,437.2z M248.2,388.9
		c-3.6,21.6,0.3,32.5,4.3,37.8c3.3,4.4,7.1,5.8,8.8,6.2c7-7.1,33.4-33.4,39.2-35.2c5.7-1.8,31.7-12,40.4-19.8c3.6-3.2,6-10.1,6.5-19
		c0.4-7.7-0.7-15.4-2.8-18.9c-2.1-3.5-20.3,1.3-36.6,8.2c-0.4,2-0.8,3.6-2.7,3.3c-2.1-0.3-1.9-2.2-1.7-4.7c0.1-0.5,0.3-1,0.7-1.4
		c0.3-1.5,0.6-3.7,1.1-6.8c1.6-10-1-14-2.9-15.6c-1.1,6.5-4.3,21.8-10.7,26.9c-5.5,4.4-8.3,13.7-10.6,21.1c-0.5,1.7-1,3.4-1.5,4.9
		C277.1,384.2,255.5,387.9,248.2,388.9z"/>
</g>
<g>
	<path class="st1" d="M226.3,242.6l29.2-32.5l11.4-102.8l62.3-24.9l40.2,20.9v17.8c0,0,5.8,65.7-42.7,63.5c0,0-2.8,30.4,0,33.8
		s46.3,6.5,46.3,6.5s-12,38.3-47.3,42.6C290.5,271.8,236.7,262.6,226.3,242.6z"/>
	<path d="M307.4,270.5c-13.6,0-28-1.5-41.1-4.4c-12.7-2.8-34.9-9.5-41.7-22.6c-0.4-0.7-0.3-1.6,0.3-2.3l28.7-32.1L264.8,107
		c0.1-0.7,0.6-1.4,1.2-1.6l62.3-24.9c0.5-0.2,1.1-0.2,1.7,0.1l40.2,20.9c0.7,0.3,1.1,1,1.1,1.8V121c0.2,2.4,2.7,36.4-14.7,54.6
		c-7.1,7.5-16.6,11.2-28.1,11.1c-1.1,13.2-1.5,28-0.3,30.4c2.9,1.8,25,4.4,45,5.8c0.6,0,1.2,0.4,1.5,0.9c0.3,0.5,0.4,1.1,0.3,1.7
		c-0.1,0.4-12.8,39.6-48.9,44C320.2,270.2,313.9,270.5,307.4,270.5z M228.7,242.9c5.1,8,18.9,15,38.4,19.3
		c18.9,4.2,40.8,5.4,58.4,3.3c28.5-3.5,41.4-30.6,44.7-38.8c-3.9-0.3-11.7-0.9-19.6-1.8c-23.3-2.5-24.8-4.3-25.5-5.2
		c-3-3.6-1.3-25.8-0.4-35.2c0.1-1.1,1-1.9,2.1-1.8c11.2,0.5,20.3-2.8,27-9.8c16.4-17.2,13.6-51.3,13.6-51.6c0-0.1,0-0.1,0-0.2v-16.6
		L329,84.6l-60.4,24.1l-11.2,101.6c0,0.4-0.2,0.8-0.5,1.1L228.7,242.9z M328.1,217"/>
</g>
<g>
	<path class="st4" d="M381.6,128.2c0,0-1.2-0.6-3.2-1.6c-8.9-4.7-33.3-19.1-36.4-35.6l-1.4,25c0,0-42.4-9.4-49,25.5
		c0,0-12.1-17-19.5-7.8c-7.4,9.2-2.2,18.7,1.8,21.2c4,2.5,18.4,3.6,18.4,3.6s1.8,48,0.3,52.3c-1.5,4.3-17.2,23.4-82.3,36.2
		c0,0,44.9-48,44.9-84.3c0-36.3-12.3-94.6,61.1-104.4C383.8,49.3,381.6,128.2,381.6,128.2z"/>
	<path d="M210.3,248.9c-0.7,0-1.4-0.4-1.7-1c-0.4-0.8-0.3-1.7,0.3-2.3c0.4-0.5,44.4-47.8,44.4-82.9c0-4.3-0.2-9-0.4-13.9
		c-1.3-35.3-3.2-83.7,63.2-92.5c18.8-2.5,34.2,1.5,45.6,11.8c12,10.8,17.3,26.6,19.6,38c2.5,12.2,2.3,21.8,2.3,22.2
		c0,0.7-0.4,1.3-1,1.6c-0.6,0.4-1.3,0.4-1.9,0.1c-0.1,0-1.3-0.6-3.3-1.7c-8.4-4.5-26.2-15-34-28.2l-0.9,15.9c0,0.6-0.3,1.1-0.8,1.5
		c-0.5,0.4-1.1,0.5-1.6,0.4c-0.2,0-20.8-4.4-34.6,4.7c-6.3,4.2-10.4,10.6-12,19.2c-0.1,0.8-0.8,1.4-1.5,1.6
		c-0.8,0.2-1.6-0.1-2.1-0.8c-1.9-2.6-7.8-9.6-12.5-9.7c-1.4,0-2.6,0.6-3.8,2c-3.4,4.2-3.5,8.2-3.1,10.7c0.6,3.5,2.7,6.4,4.4,7.5
		c2.6,1.6,12.1,2.9,17.5,3.3c1,0.1,1.8,0.9,1.8,1.9c0.3,8.1,1.8,48.6,0.2,53.1c-1.2,3.3-6.7,9.4-18.2,16
		c-15.5,8.8-37.6,16-65.5,21.5C210.6,248.9,210.5,248.9,210.3,248.9z M326.6,59.6c-3.2,0-6.5,0.2-10,0.7
		c-62.8,8.3-61.1,52.7-59.7,88.4c0.2,4.9,0.4,9.6,0.4,14c0,15.5-7.7,34.6-22.8,56.9c-7.1,10.5-14.3,19.2-18.6,24.2
		c24.8-5.3,44.4-12,58.5-19.9c11.8-6.7,15.9-12.2,16.4-13.8c0.9-2.6,0.5-27.3-0.4-49.8c-4.2-0.4-14-1.5-17.5-3.7
		c-2.5-1.5-5.4-5.3-6.3-10.2c-0.6-3.4-0.4-8.6,3.9-13.9c1.9-2.4,4.3-3.5,7-3.5c5.1,0.1,10.1,4.8,13.1,8.1
		c2.3-7.7,6.5-13.6,12.8-17.7c12.6-8.3,29.3-6.6,35.4-5.7l1.3-22.7c0.1-1,0.9-1.8,1.9-1.9c1-0.1,1.9,0.6,2.1,1.6
		c3,15.9,27.8,30.2,35.4,34.2c0.1,0,0.1,0.1,0.2,0.1c-0.3-9.5-2.9-38-20.6-53.9C350.5,63.4,339.6,59.6,326.6,59.6z"/>
</g>
<g id="Layer_5">
	<g>
		<path class="st1" d="M381.6,125.3c0,0-1.2-0.5-3.2-1.5c-1.4-17.2-7-58.3-62.1-63.2C383.8,52.3,381.6,125.3,381.6,125.3z"/>
	</g>
</g>
<g>
	<path class="st1" d="M412.6,344.9c0,0,6.3-27.8,5.8-50.7c-0.4-22.9,1.8-34.3,0-36.8s-8.2-12.1,0.7-26.3c8.8-14.2,0-33,0-33
		s6.3-1.7,10.9,5.9c4.6,7.5,5,23.8,5,23.8l56.9-29.8c0,0,17.6-1.1,6.3,12.3c-11.3,13.4-17.6,19.2-17.6,19.2s2.8,5.4-8,13.4
		s-24.6,9.2-25.5,18.4c-0.8,9.2,10.1,104.1,10.1,104.1S421.5,368.9,412.6,344.9z"/>
	<path d="M452.1,367.4c-3.6,0-8.7-0.3-14.2-1.4c-13.9-2.9-23.3-9.9-27.1-20.4c-0.1-0.4-0.2-0.8-0.1-1.1c0.1-0.3,6.2-27.9,5.8-50.3
		c-0.2-10.9,0.2-19.2,0.5-25.2c0.2-4.9,0.5-9.6-0.1-10.5c-5.8-8.3-5.6-18.5,0.6-28.5c8.2-13.1,0-30.9-0.1-31.1
		c-0.3-0.5-0.3-1.2,0-1.7c0.3-0.5,0.7-0.9,1.3-1.1c0.3-0.1,7.8-2,13.2,6.7c3.6,5.9,4.8,16.4,5.1,21.7l54.1-28.4
		c0.2-0.1,0.5-0.2,0.8-0.2c0.9-0.1,9.2-0.4,11.6,4.3c1.5,2.9,0.3,6.6-3.7,11.3c-9,10.6-14.7,16.5-16.8,18.5
		c0.4,2.5-0.1,7.8-9.1,14.4c-4.1,3-8.7,5.1-12.7,7c-7.2,3.3-11.6,5.6-12,10c-0.6,7.1,6.3,70.9,10.1,103.7c0.1,0.5-0.1,1.1-0.4,1.5
		c-0.3,0.4-0.8,0.7-1.4,0.7C457.4,367.2,455.3,367.4,452.1,367.4z M414.7,344.7c3.5,9,11.6,14.8,24,17.3c6.9,1.4,13.3,1.4,16.4,1.2
		c-1.6-14.3-10.6-93.8-9.8-102.4c0.6-7,7.3-10,14.3-13.3c4-1.9,8.2-3.8,12-6.6c9-6.6,7.4-10.9,7.4-10.9c-0.4-0.8-0.2-1.7,0.4-2.3
		c0.1-0.1,6.3-6,17.4-19.1c3.7-4.4,3.4-6.3,3.1-6.9c-0.8-1.6-4.7-2.2-7.4-2.1l-56.5,29.6c-0.6,0.3-1.3,0.3-1.9,0c-0.6-0.3-1-1-1-1.7
		c0-0.2-0.5-15.9-4.7-22.8c-2.1-3.4-4.5-4.6-6.3-4.9c2.2,6,6.1,20.3-1.3,32.1c-5.4,8.7-5.7,17.1-0.7,24.1c1.3,1.9,1.2,5.3,0.8,13
		c-0.3,6-0.7,14.2-0.5,25C420.9,315.1,415.6,340.5,414.7,344.7z"/>
</g>
<g>
	<path class="st1" d="M430.4,252.8c0,0,3.7-19.6,14.8-20.7s26.9-4.8,27.5-18.5s0.6-16.4,3.2-15.9s7.4,18.6,4.7,31.5"/>
	<path d="M430.4,254.8c-0.1,0-0.2,0-0.4,0c-1.1-0.2-1.8-1.3-1.6-2.3c0.2-0.9,4.1-21.1,16.6-22.3c11.4-1.1,25.2-4.9,25.7-16.6
		l0.1-1.6c0.5-11,0.6-14,2.5-15.5c0.8-0.6,1.8-0.8,3-0.6c0.9,0.2,1.6,0.8,2.3,1.8c3.2,4.7,6.3,20.6,4,32.1c-0.2,1.1-1.3,1.8-2.4,1.6
		c-1.1-0.2-1.8-1.3-1.6-2.4c2.2-11-1.1-25.2-3.1-28.7c-0.4,1.8-0.6,6.2-0.8,11.9l-0.1,1.6c-0.4,8.1-5.7,18.2-29.3,20.4
		c-7.9,0.8-12.1,14-13.1,19C432.2,254.2,431.4,254.8,430.4,254.8z M475.1,199.5C475.1,199.5,475.1,199.5,475.1,199.5
		S475.1,199.5,475.1,199.5z"/>
</g>
<g>
	<path d="M332.8,129c-0.5,0-1.1-0.2-1.5-0.7c-4.1-4.5-14.7-1.2-18.5,0.5c-1,0.4-2.2,0-2.6-1c-0.4-1,0-2.2,1-2.6
		c0.7-0.3,16.2-7,23,0.5c0.7,0.8,0.7,2.1-0.1,2.8C333.8,128.8,333.3,129,332.8,129z"/>
</g>
<g>
	<path d="M340.4,158.7c-1,0-1.9-0.8-2-1.9c-0.1-1.1,0.8-2.1,1.9-2.1c1.2-0.1,2.1-0.4,2.5-1.1c0.6-0.9,0.5-2.2,0.3-3.1
		c-0.1-0.2-0.1-0.5-0.2-0.7c-0.8-2.4-1.5-4.6,0.2-16.7c0.5-3.6,2.1-6.3,4.9-7.9c6.7-4.1,17.8-0.2,18.3-0.1c1,0.4,1.6,1.5,1.2,2.6
		c-0.4,1-1.5,1.6-2.6,1.2c-2.7-1-10.6-2.9-14.8-0.3c-1.7,1-2.7,2.7-3,5c-1.5,11.2-0.9,13.1-0.3,14.9c0.1,0.3,0.2,0.5,0.3,0.8
		c0.7,2.4,0.4,4.8-0.8,6.5c-0.8,1.1-2.4,2.6-5.5,2.8C340.5,158.7,340.4,158.7,340.4,158.7z"/>
</g>
<g>
	<path d="M334.2,170.5c-2.7,0-5.1-0.6-7.2-1.7c-5.2-2.8-6.5-7.9-6.5-8.1c-0.3-1.1,0.4-2.2,1.5-2.4c1.1-0.3,2.1,0.4,2.4,1.4
		c0,0.1,1,3.7,4.6,5.6c3.2,1.7,7.5,1.6,12.9-0.3c1-0.4,2.2,0.2,2.6,1.2c0.4,1-0.2,2.2-1.2,2.6C339.9,169.9,336.9,170.5,334.2,170.5z
		"/>
</g>
<g>
	<ellipse cx="325.4" cy="136.5" rx="3.6" ry="5.5"/>
</g>
<g>
	<ellipse cx="356.4" cy="141.2" rx="3.4" ry="4.8"/>
</g>
<g>
	<path class="st5" d="M442.8,311l-3.1-14c0,0-2.6-12.6,12.4-12.6c15,0,106.2,0,106.2,0s14-2.9,19.2,18.3
		c5.2,21.2,17.6,66.3,17.6,66.3s7.8,16.7-10.4,16.1S460.4,383,460.4,383L442.8,311z"/>
	<path d="M585.7,387.2c-0.3,0-0.6,0-1,0c-17.9-0.6-123.3-2.1-124.3-2.1c-0.9,0-1.7-0.6-1.9-1.5l-17.6-72c0,0,0,0,0,0l-3.1-14
		c-0.1-0.3-1.2-6,2.4-10.4c2.5-3.1,6.5-4.6,12-4.6h106.1c2.1-0.3,16.1-1.4,21.3,19.8c5,20.4,16.8,63.3,17.6,66.1
		c0.5,1.2,3.6,8.8,0.1,14.1C595.1,385.6,591.2,387.2,585.7,387.2z M462,381c13.2,0.2,106.1,1.6,122.9,2.1c4.6,0.2,7.6-0.8,9-2.9
		c2.1-3.1,0.4-8.5-0.5-10.4c0-0.1-0.1-0.2-0.1-0.3c-0.1-0.5-12.5-45.4-17.6-66.4c-4.6-19-16.3-16.9-16.8-16.8c-0.1,0-0.3,0-0.4,0
		H452.1c-4.2,0-7.2,1-8.9,3.1c-2.4,2.9-1.6,7.1-1.6,7.1l3.1,13.9L462,381z"/>
</g>
<g>
	<path class="st1" d="M433.3,304.5c0,0-6.9,6.9-2.9,10.5c4,3.6,5.1,4.8,11.2,5.1s22.5,2.5,22.5,2.5s6.5-3.4-3.3-9.1
		C451.1,307.9,433.3,304.5,433.3,304.5z"/>
	<path d="M464.1,324.7c-0.1,0-0.2,0-0.3,0c-0.2,0-16.3-2.2-22.3-2.5c-6.7-0.3-8.3-1.8-12.1-5.3l-0.4-0.3c-1.2-1.1-1.9-2.5-1.9-4.1
		c-0.1-4.3,4.2-8.8,4.7-9.3c0.5-0.5,1.1-0.7,1.8-0.6c0.7,0.1,18.2,3.5,28.2,9.3c4.4,2.5,6.4,5.1,6.4,7.8c-0.1,3.1-2.9,4.6-3.2,4.8
		C464.7,324.6,464.4,324.7,464.1,324.7z M434,306.7c-1.3,1.5-2.9,3.9-2.8,5.6c0,0.5,0.2,0.9,0.6,1.3l0.4,0.3c3.5,3.2,4.4,4,9.6,4.3
		c5.5,0.3,18.5,2,21.9,2.4c0.3-0.3,0.6-0.6,0.6-1c0-0.3-0.2-1.8-4.4-4.2C451.8,310.7,438,307.6,434,306.7z"/>
</g>
<g>
	<path class="st1" d="M433.8,319c0,0-6.9,6.9-2.9,10.5s5.1,4.8,11.2,5.1c6.1,0.3,22.5,2.5,22.5,2.5s6.5-3.4-3.3-9.1
		C451.6,322.3,433.8,319,433.8,319z"/>
	<path d="M464.6,339.1c-0.1,0-0.2,0-0.3,0c-0.2,0-16.3-2.2-22.3-2.5c-6.7-0.3-8.3-1.8-12.1-5.3l-0.4-0.3c-1.2-1.1-1.9-2.5-1.9-4.1
		c-0.1-4.3,4.2-8.8,4.7-9.3c0.5-0.5,1.1-0.7,1.8-0.6c0.7,0.1,18.2,3.5,28.2,9.3c4.4,2.5,6.4,5.1,6.4,7.8c-0.1,3.1-2.9,4.6-3.2,4.8
		C465.2,339,464.9,339.1,464.6,339.1z M434.5,321.2c-1.3,1.5-2.9,3.9-2.8,5.6c0,0.5,0.2,0.9,0.6,1.3l0.4,0.3c3.5,3.2,4.4,4,9.6,4.3
		c5.5,0.3,18.5,2,21.9,2.4c0.3-0.3,0.6-0.6,0.6-1c0-0.3-0.2-1.8-4.4-4.2C452.4,325.1,438.5,322,434.5,321.2z"/>
</g>
<g>
	<path class="st1" d="M432.2,331.4c0,0-6.9,6.9-2.9,10.5s5.1,4.8,11.2,5.1c6.1,0.3,22.5,2.5,22.5,2.5s6.5-3.4-3.3-9.1
		C449.9,334.8,432.2,331.4,432.2,331.4z"/>
	<path d="M463,351.5c-0.1,0-0.2,0-0.3,0c-0.2,0-16.3-2.2-22.3-2.5c-6.7-0.3-8.3-1.8-12.1-5.3l-0.4-0.3c-1.2-1.1-1.9-2.5-1.9-4.1
		c-0.1-4.3,4.2-8.8,4.7-9.3c0.5-0.5,1.1-0.7,1.8-0.6c0.7,0.1,18.2,3.5,28.2,9.3c4.4,2.5,6.4,5.1,6.4,7.8c-0.1,3.1-2.9,4.6-3.2,4.8
		C463.6,351.4,463.3,351.5,463,351.5z M432.9,333.6c-1.3,1.5-2.9,3.9-2.8,5.6c0,0.5,0.2,0.9,0.6,1.3l0.4,0.3c3.5,3.2,4.4,4,9.6,4.3
		c5.5,0.3,18.5,2,21.9,2.4c0.3-0.3,0.6-0.6,0.6-1c0-0.3-0.2-1.8-4.4-4.2C450.7,337.5,436.8,334.4,432.9,333.6z"/>
</g>
<g>
	<path class="st1" d="M346.7,347.5c-17.9,6.4-23.1,8.4-23.1,8.4"/>
	<path d="M323.6,357.9c-0.8,0-1.6-0.5-1.9-1.3c-0.4-1,0.1-2.2,1.1-2.6c0.1,0,5.4-2.1,23.2-8.4c1.1-0.4,2.2,0.2,2.6,1.2
		c0.4,1-0.2,2.2-1.2,2.6c-17.7,6.3-23,8.3-23.1,8.4C324.1,357.9,323.8,357.9,323.6,357.9z"/>
</g>
<g>
	<path class="st1" d="M348,359.6c-17.9,6.4-23.1,8.4-23.1,8.4"/>
	<path d="M324.8,370c-0.8,0-1.6-0.5-1.9-1.3c-0.4-1,0.1-2.2,1.1-2.6c0.1,0,5.4-2.1,23.2-8.4c1.1-0.4,2.2,0.2,2.6,1.2
		c0.4,1-0.2,2.2-1.2,2.6c-17.7,6.3-23,8.3-23.1,8.4C325.3,369.9,325.1,370,324.8,370z"/>
</g>
<g>
	<path d="M604.1,83.5c0,0,57.5,11,24.2,73.3l13.6-1.1c0,0,27-28.5,4.2-66.9C646.1,88.8,627.8,82.9,604.1,83.5z"/>
</g>
<g>
	<path class="st6" d="M116.8,456.4h-12.8v-23.2L83,402c-3.3,1.4-6.8,2.1-10.4,2.1c-14.9,0-27-12.1-27-27s12.1-27,27-27
		s27,12.1,27,27c0,6.9-2.6,13.4-7.2,18.4l11.7,19v-84.8l-22.4-44.9c-2.1,0.4-4.3,0.7-6.4,0.7c-17.6,0-32-14.3-32-32s14.3-32,32-32
		s32,14.3,32,32c0,10.7-5.5,20.8-14.4,26.7l20.4,38.4l12.7-8.8c-1.2-2.9-1.8-6-1.8-9.2c0-13.2,10.7-23.9,23.9-23.9
		s23.9,10.7,23.9,23.9c0,13.2-10.7,23.9-23.9,23.9c-5.2,0-10.3-1.7-14.4-4.9l-17.6,12l-0.8,60.1l11.5-9.4c-0.8-2.3-1.2-4.8-1.2-7.2
		c0-12.4,10.1-22.5,22.5-22.5c12.4,0,22.5,10.1,22.5,22.5c0,12.4-10.1,22.5-22.5,22.5c-5.8,0-11.2-2.1-15.3-6.1l-15.8,13.2V456.4z
		 M107.2,453.3h6.5V403l19.2-16l1,1.1c3.7,3.9,8.7,6.1,14.1,6.1c10.7,0,19.4-8.7,19.4-19.4s-8.7-19.4-19.4-19.4
		c-10.7,0-19.4,8.7-19.4,19.4c0,2.4,0.5,4.8,1.4,7.1l0.4,1.1L112,398.1l0.9-68.5l20.9-14.2l0.9,0.8c3.7,3.1,8.5,4.9,13.3,4.9
		c11.4,0,20.7-9.3,20.7-20.7c0-11.4-9.3-20.7-20.7-20.7s-20.7,9.3-20.7,20.7c0,3.2,0.7,6.2,2.1,9l0.6,1.2L112.2,323l-23.5-44.1
		l1.3-0.8c8.7-5.2,14.1-14.7,14.1-24.8c0-15.9-12.9-28.8-28.8-28.8c-15.9,0-28.8,12.9-28.8,28.8s12.9,28.8,28.8,28.8
		c2.3,0,4.6-0.3,6.9-0.8l1.2-0.3l23.8,47.8v96.6l-18.8-30.5l0.9-0.9c4.6-4.5,7.2-10.6,7.2-17.1c0-13.2-10.7-23.9-23.9-23.9
		S48.7,363.9,48.7,377s10.7,23.9,23.9,23.9c4.1,0,8.1-1.1,11.7-3.1l1.8,2.6l-0.3,0.2l21.3,31.6V453.3z"/>
</g>
<g>
	<path class="st7" d="M132.5,515.7H90.8c-11.4,0-20.7-9.3-20.7-20.7v-39.8h83v39.8C153.2,506.5,143.9,515.7,132.5,515.7z"/>
	<path class="st6" d="M132.5,517.3H90.8c-12.3,0-22.2-10-22.2-22.2v-41.4h86.2v41.4C154.7,507.3,144.8,517.3,132.5,517.3z
		 M71.7,456.8v38.2c0,10.5,8.6,19.1,19.1,19.1h41.7c10.5,0,19.1-8.6,19.1-19.1v-38.2H71.7z"/>
</g>
</svg>
