<?xml version="1.0" encoding="utf-8"?>
<!-- Generator: Adobe Illustrator 24.0.3, SVG Export Plug-In . SVG Version: 6.00 Build 0)  -->
<svg version="1.0" xmlns="http://www.w3.org/2000/svg" xmlns:xlink="http://www.w3.org/1999/xlink" x="0px" y="0px"
	 viewBox="0 0 784 724.7" style="enable-background:new 0 0 784 724.7;" xml:space="preserve">
<style type="text/css">
	.st0{fill:#FEACD0;}
	.st1{fill:#FFFFFF;}
	.st2{fill:#909090;}
	.st3{fill:#8E8E8E;}
	.st4{fill:#DADADA;}
	.st5{fill:#FFFFFF;stroke:#000000;stroke-width:5.9553;stroke-linecap:round;stroke-linejoin:round;stroke-miterlimit:10;}
	.st6{fill:none;stroke:#000000;stroke-width:5.9553;stroke-linecap:round;stroke-linejoin:round;stroke-miterlimit:10;}
	.st7{fill:#FFFFFF;stroke:#000000;stroke-width:5.9553;stroke-miterlimit:10;}
	.st8{fill:none;stroke:#000000;stroke-width:5.7694;stroke-linecap:round;stroke-linejoin:round;stroke-miterlimit:10;}
	.st9{stroke:#000000;stroke-width:5.9553;stroke-miterlimit:10;}
	.st10{fill:#FE3883;}
</style>
<g id="Layer_22">
	<g>
		<path class="st0" d="M451.6,351.1l-104.9-12.9c-18.1-2.2-30.9-18.7-28.7-36.8l2.1-16.8c2.2-18.1,18.7-30.9,36.8-28.7l104.9,12.9
			c18.1,2.2,30.9,18.7,28.7,36.8l-2.1,16.8C486.1,340.4,469.7,353.3,451.6,351.1z"/>
	</g>
</g>
<g id="Layer_20">
	<g>
		<g>
			<path class="st1" d="M225.8,559.8l-71.2,1.8c0,0-12.1-3.2-10.7,26.2c1.5,29.4,11.7,48.5,11.7,48.5l88.5-4.6
				c0,0-19.1-34.7-16.6-66.2"/>
		</g>
		<g>
			<path class="st2" d="M153.9,639.3l-0.9-1.7c-0.4-0.8-10.6-20.1-12.1-49.8c-0.7-14,1.5-23.1,6.6-27.2c3-2.5,6.1-2.3,7.3-2.1
				l70.9-1.8l0.1,6l-71.6,1.8l-0.4-0.1c-0.1,0-1.3-0.2-2.7,1c-1.9,1.7-5,6.8-4.2,22.2c1.2,23.5,8.2,40.4,10.6,45.6l82-4.3
				c-5-10.3-16.9-37.8-14.9-63.7l5.9,0.5c-2.4,30.2,16.1,64.2,16.3,64.6l2.3,4.2L153.9,639.3z"/>
		</g>
	</g>
</g>
<g id="Layer_21">
	<g>
		
			<rect x="143.9" y="574.8" transform="matrix(0.9996 -2.856674e-02 2.856674e-02 0.9996 -16.4322 5.3618)" class="st3" width="71.1" height="6"/>
	</g>
</g>
<g id="Layer_19">
	<g>
		<g>
			<path class="st1" d="M536.6,49.4h-80.2c0,0-14.8,56.4,8.9,68.3c0,0,54-3.6,79,2.4c0,0-10.7-36.8-4.7-57.6"/>
		</g>
		<g>
			<path class="st2" d="M548.5,124.1l-5-1.2c-24.2-5.8-77.5-2.3-78.1-2.3l-0.8,0.1l-0.7-0.4c-25.6-12.8-11.1-69.3-10.5-71.7l0.6-2.2
				h82.5v6h-77.9c-3.9,16.3-8.8,53.2,7.2,62.3c6.8-0.4,49.4-2.8,74.2,1.5c-2.7-10.8-8.4-37.4-3.5-54.5l5.7,1.6
				c-5.6,19.7,4.6,55.6,4.7,55.9L548.5,124.1z"/>
		</g>
	</g>
</g>
<g id="Layer_18">
	<g>
		<path class="st4" d="M705.6,377H587.8c-15.7,0-28.3-12.7-28.3-28.3v-209c0-15.7,12.7-28.3,28.3-28.3h117.8
			c15.7,0,28.3,12.7,28.3,28.3v209C734,364.3,721.3,377,705.6,377z"/>
	</g>
</g>
<g id="Layer_13">
	<g>
		<polygon class="st3" points="303.3,418.8 115.7,418.8 115.7,138.1 311.3,138.1 311.3,144.1 121.7,144.1 121.7,412.8 303.3,412.8 
					"/>
	</g>
	<g>
		<rect x="118.7" y="263.7" class="st3" width="176" height="6"/>
	</g>
</g>
<g id="Layer_15">
	<g>
		<path class="st4" d="M404.3,190.4h-70.6c-17.1,0-30.9-13.8-30.9-30.9v-20.2c0-17.1,13.8-30.9,30.9-30.9h70.6
			c17.1,0,30.9,13.8,30.9,30.9v20.2C435.2,176.6,421.4,190.4,404.3,190.4z"/>
	</g>
</g>
<g id="Layer_16">
	<g>
		<path class="st4" d="M162.7,313.7H58.6c-16.5,0-29.9-13.4-29.9-29.9v-71.5c0-16.5,13.4-29.9,29.9-29.9h104.2
			c16.5,0,29.9,13.4,29.9,29.9v71.5C192.7,300.3,179.3,313.7,162.7,313.7z"/>
	</g>
</g>
<g id="Layer_14">
	<g id="Layer_17">
		<g>
			<path class="st4" d="M273.5,453.1h-99.7c-16.5,0-29.8-12.6-29.8-28.2v-19.6c0-15.6,13.4-28.2,29.8-28.2h99.7
				c16.5,0,29.8,12.6,29.8,28.2v19.6C303.3,440.4,290,453.1,273.5,453.1z"/>
		</g>
	</g>
</g>
<g id="Layer_7">
	<path class="st5" d="M461.5,465c0,0-14.2-62.7-16.8-69c-2.6-6.3-10.3-9.7-15.7-11.4c-5.4-1.7-18.8-14.7-20.3-26.3
		c-1.5-11.6-25.2-18.5-21.4-21.4c3.7-3,16.6-22.2,36.9,8.9c0,0,4.3-53.4,16.8-61.8c12.5-8.5,12.7,4.8,12.7,4.8s12.7-14.2,18.1,7.3
		c0,0,10.8,2.6,7.8,16.8c0,0,9.1-3,8,8.9s-7.8,37.8-5.8,46.4c2.1,8.6,17.9,56.1,27.2,60.6C518.3,433.3,461.5,465,461.5,465z"/>
</g>
<g id="Layer_27">
	<path class="st5" d="M453.6,288.8c-3.9,14.3-10.2,32.5-10.2,40.5"/>
	<path class="st5" d="M471.7,296.1c-3.4,8.7-10.1,30.3-10.1,37.5"/>
	<path class="st5" d="M479.5,312.9c-4.9,8.4-6.5,24.6-6.5,24.6"/>
</g>
<g id="Layer_6">
	<path class="st5" d="M227.4,431.7c-0.3-6.1,1.5-13,10-13c8.5,0,51.4,5.4,56.3,4.5s10.3-9.7,8.5-15.4c-1.8-5.8,3.5-20.8,14.1-20.2
		c10.6,0.6,1.3,10.1,1.9,16.4s43,62,72.2,65.1S365.2,533,365.2,533s-36.8-32.2-46-36.3c-9.1-4.1-47.3-9.5-57.9-8
		s-31.3,5.8-19.4-13.6c0,0-16.8,2.6-10.6-16.6c0,0-21.8-12.3,7.3-19L227.4,431.7z"/>
</g>
<g id="Layer_26">
	<path class="st6" d="M238.6,439.5c20.3,3.8,33.3,5.5,33.3,5.5"/>
	<line class="st6" x1="231.4" y1="458.5" x2="267.8" y2="462.3"/>
	<line class="st6" x1="242" y1="475.1" x2="265.2" y2="475.1"/>
</g>
<g id="Layer_5">
	<path class="st7" d="M500.7,685.3l241.8-1.2l-96.3-126.2l-109.7,24.7C536.5,582.6,494.4,658.3,500.7,685.3z"/>
</g>
<g id="Layer_8">
	<circle class="st8" cx="525.8" cy="317.8" r="26.2"/>
</g>
<g id="Layer_3">
	<path class="st7" d="M557.8,284.1c0,0-20.4,10.5-25.9,24.9c-5.5,14.4-16.2,20.9-22.4,20.4c-6.2-0.5-6.2,3.7-4.7,6.7
		c1.5,3,3.5,20.3,2.7,26.1c-0.7,5.8,9.2,30.2,30.6,29.9l0.5,17.7l94.9-11.5L586.7,292L557.8,284.1z"/>
</g>
<g id="Layer_4">
	<path class="st9" d="M646.2,560.5l-106,22.1c0,0-2.5,0.3-5.8-0.6c0,0,0,0,0,0c-6-1.7-14.4-7.8-13-28.6c0,0-38.9,4.5-39.3-27.8
		c0,0-5.4,2.4-14,5.4c-25.3,9-78.3,24.3-103,4.3c0,0-2.8-29.7,10.6-50.9c4.2-6.7,10-12.6,18-16.4c0,0,16.7,8.9,41.4-4
		c24.7-12.9,68.2-40,100.2-36.9l0.8-6.1l2.3-16.5l44.4-1.9c0,0,46.7,46.8,52.2,57.5C640.8,470.9,646.2,560.5,646.2,560.5z"/>
</g>
<g id="Layer_25">
	<path class="st1" d="M523.1,551.3c0,0-38.9,4.5-39.3-27.8c0,0-5.4,2.4-14,5.4l13.9-11.2C483.6,517.7,491.3,551.8,523.1,551.3z"/>
	<path class="st1" d="M536.2,581c-6-1.7-14.4-7.8-13-28.6C523.2,552.3,530,576.6,536.2,581z"/>
</g>
<g id="Layer_24">
	<path class="st1" d="M535.4,430.1c-24.7,1.5-67.6,28.3-100.1,46.5c-21.8,12.1-45.9,12.1-59.4,10.8c4.2-6.7,10-12.6,18-16.4
		c0,0,16.7,8.9,41.4-4C459.9,454.1,503.4,427,535.4,430.1z"/>
</g>
<g id="Layer_2">
	<g>
		<g>
			<path class="st10" d="M680.1,600.6c0,0-28.6-30.1-33.9-40.1c-5.2-10-1.7-23.9-4.2-48.3c-2.5-24.4-24.1-69.2-40.8-83.7
				c-16.7-14.4-25.9-45.3-25.9-45.3c24.4,16.7,34.4,3.5,35.1-10.2c0.7-13.7-19.7-12.4-19.7-12.4C568,345.1,572,297,572,297
				s-33.4-10.5-43.3-23.4c-2.6-3.4-3.2-6.4-2.8-9c1.3-7.5,11.7-11.7,11.7-11.7c130-17.7,122.5,71.7,123.3,111.3
				c0.4,19,7.5,35.4,16.3,48.2c9.6,13.8,21.1,23.5,28.3,27.8c13.7,8.2,49.3,12.2,54.3,67.5C764.8,562.9,680.1,600.6,680.1,600.6z"/>
		</g>
		<g>
			<path d="M679.4,604.1l-1.4-1.5c-1.2-1.2-29-30.6-34.3-40.8c-3.5-6.6-3.5-14.2-3.5-24.8c0-7-0.1-14.9-1-24.6
				c-2.4-23.7-24-68-39.8-81.7c-17.1-14.8-26.4-45.4-26.8-46.7L570,376l6.9,4.7c9.8,6.7,17.8,8.8,23.2,6.2c4.2-2.1,6.9-7.3,7.3-14.1
				c0.1-2.3-0.5-4.1-1.9-5.5c-3.7-3.6-11.8-4-14.6-3.9l-1,0.1L589,363c-21.1-14.4-20.6-53.7-20.1-63.8c-7.8-2.6-33.6-12-42.6-23.7
				c-2.9-3.8-4-7.6-3.3-11.3c1.6-9,13-13.7,13.5-13.9l0.3-0.1l0.4-0.1c44.7-6.1,77.8,0,98.6,18c27.6,23.9,27.8,63,28,88.9
				c0,2.6,0,5.1,0.1,7.3c0.3,16.1,5.6,31.8,15.8,46.5c9.2,13.3,20.5,22.8,27.3,26.9c2.2,1.3,5.1,2.6,8.5,4
				c16.1,6.9,42.9,18.3,47.2,65.8c2.1,23.6-11.4,47.8-39.1,69.8c-20.6,16.4-41.5,25.7-42.4,26.1L679.4,604.1z M580.8,390
				c3.8,9.9,11.5,26.9,22.3,36.3c17,14.7,39.3,60.3,41.9,85.6c1,10,1.1,18.5,1.1,25.2c0,9.7,0.1,16.7,2.8,22
				c4.3,8.2,26,31.6,31.9,37.9c12.3-5.9,80.4-41,76-89c-3.9-43.9-27.8-54.1-43.6-60.8c-3.6-1.5-6.7-2.9-9.2-4.4
				c-7.7-4.7-19.5-14.6-29.2-28.6c-10.7-15.5-16.5-32.7-16.8-49.8c0-2.3-0.1-4.8-0.1-7.4c-0.2-24.8-0.4-62.3-25.9-84.4
				c-19.3-16.8-50.8-22.4-93.5-16.6c-2.7,1.2-8.8,4.8-9.6,9.3c-0.4,2,0.4,4.3,2.2,6.6c9.3,12.1,41.5,22.3,41.8,22.4l2.3,0.7
				l-0.2,2.4c0,0.5-3.5,45.4,16.6,60.2c3.2,0,12.8,0.3,18.1,5.6c2.6,2.6,3.9,6.1,3.7,10c-0.5,9.1-4.3,16.1-10.6,19.1
				C596.8,395.2,589.5,394.4,580.8,390z"/>
		</g>
	</g>
</g>
<g id="Layer_28">
	<path class="st1" d="M673.6,414.4c-29.8-21-21.8-54.5-22.5-74.9c-0.7-20.4-12.4-43.8-19.9-53.4c-20.7-36.9-80-25.2-102.4-19.5
		c-0.2-6.5,9.8-10.8,9.8-10.8c126-17.7,118.4,70.8,119.2,110.4C658.1,385.3,665,401.6,673.6,414.4z"/>
</g>
<g id="Layer_9">
	<circle class="st8" cx="559.5" cy="337.5" r="26.2"/>
</g>
<g id="Layer_23">
	<path class="st8" d="M539.1,321c-8.8-8.3-8.8-8.3-8.8-8.3"/>
</g>
<g id="Layer_12">
	<ellipse transform="matrix(0.5424 -0.8401 0.8401 0.5424 -28.4558 618.6298)" cx="553.7" cy="335.4" rx="9.2" ry="3.6"/>
</g>
<g id="Layer_10">
	<path class="st8" d="M517.3,359.3c0,0,3.3,10.3,19.2,4.4"/>
</g>
<g id="Layer_11">
	<path class="st8" d="M577.7,373.1c0,0,14.1-1.5,19.5,3.9"/>
</g>
</svg>
